<svg xmlns="http://www.w3.org/2000/svg" width="200" height="200" viewBox="0 0 200 200">
  <!-- 背景圆 -->
  <circle cx="100" cy="100" r="95" fill="#00ADD8" />
  <!-- Go 语言的 G 字母 -->
  <path d="M150,80 L150,120 C150,136.568542 136.568542,150 120,150 L80,150 C63.4314575,150 50,136.568542 50,120 L50,80 C50,63.4314575 63.4314575,50 80,50 L120,50 C136.568542,50 150,63.4314575 150,80 Z M120,70 L80,70 C74.4771525,70 70,74.4771525 70,80 L70,120 C70,125.522847 74.4771525,130 80,130 L120,130 C125.522847,130 130,125.522847 130,120 L130,80 C130,74.4771525 125.522847,70 120,70 Z" fill="white" />
  <!-- 日志符号 -->
  <path d="M100,110 L110,110 L110,120 L100,120 Z M90,110 L80,110 L80,120 L90,120 Z M70,110 L60,110 L60,120 L70,120 Z" fill="#FFD700" />
  <!-- 标题文字 -->
  <text x="100" y="160" font-family="Arial, sans-serif" font-size="16" font-weight="bold" fill="white" text-anchor="middle">LazyGophers Log</text>
</svg>